<svg width="1512" height="982" viewBox="0 0 1512 982" fill="none" xmlns="http://www.w3.org/2000/svg">
<g clip-path="url(#clip0_110_2)">
<rect width="1512" height="982" fill="white"/>
<path d="M59.2785 -16.7433C82.4295 -40.4619 120.57 -40.462 143.721 -16.7433L346.775 191.289C369.147 214.209 369.147 250.791 346.775 273.711L143.721 481.743C120.57 505.462 82.4296 505.462 59.2785 481.743L-143.775 273.711C-166.147 250.791 -166.147 214.209 -143.775 191.289L59.2785 -16.7433Z" fill="#B1B5FF"/>
<path d="M59.2785 -16.7433C82.4295 -40.4619 120.57 -40.462 143.721 -16.7433L346.775 191.289C369.147 214.209 369.147 250.791 346.775 273.711L143.721 481.743C120.57 505.462 82.4296 505.462 59.2785 481.743L-143.775 273.711C-166.147 250.791 -166.147 214.209 -143.775 191.289L59.2785 -16.7433Z" fill="#B1B5FF"/>
<path d="M59.2785 -16.7433C82.4295 -40.4619 120.57 -40.462 143.721 -16.7433L346.775 191.289C369.147 214.209 369.147 250.791 346.775 273.711L143.721 481.743C120.57 505.462 82.4296 505.462 59.2785 481.743L-143.775 273.711C-166.147 250.791 -166.147 214.209 -143.775 191.289L59.2785 -16.7433Z" fill="#B1B5FF"/>
<path d="M1407.28 477.257C1430.43 453.538 1468.57 453.538 1491.72 477.257L1694.78 685.289C1717.15 708.209 1717.15 744.791 1694.78 767.711L1491.72 975.743C1468.57 999.462 1430.43 999.462 1407.28 975.743L1204.22 767.711C1181.85 744.791 1181.85 708.209 1204.22 685.289L1407.28 477.257Z" fill="#B1B5FF"/>
<path d="M1407.28 477.257C1430.43 453.538 1468.57 453.538 1491.72 477.257L1694.78 685.289C1717.15 708.209 1717.15 744.791 1694.78 767.711L1491.72 975.743C1468.57 999.462 1430.43 999.462 1407.28 975.743L1204.22 767.711C1181.85 744.791 1181.85 708.209 1204.22 685.289L1407.28 477.257Z" fill="#B1B5FF"/>
<path d="M1407.28 477.257C1430.43 453.538 1468.57 453.538 1491.72 477.257L1694.78 685.289C1717.15 708.209 1717.15 744.791 1694.78 767.711L1491.72 975.743C1468.57 999.462 1430.43 999.462 1407.28 975.743L1204.22 767.711C1181.85 744.791 1181.85 708.209 1204.22 685.289L1407.28 477.257Z" fill="#B1B5FF"/>
<path d="M1262.71 -53.7005C1301 -119.454 1396 -119.454 1434.29 -53.7005V-53.7005C1448.32 -29.6136 1471.83 -12.5337 1499.08 -6.63424V-6.63424C1573.45 9.4704 1602.8 99.8133 1552.1 156.556V156.556C1533.53 177.342 1524.55 204.978 1527.35 232.711V232.711C1535.02 308.418 1458.17 364.253 1388.54 333.568V333.568C1363.03 322.327 1333.97 322.327 1308.46 333.568V333.568C1238.83 364.253 1161.98 308.418 1169.65 232.711V232.711C1172.45 204.978 1163.47 177.342 1144.9 156.556V156.556C1094.2 99.8133 1123.55 9.47041 1197.92 -6.63424V-6.63424C1225.17 -12.5337 1248.68 -29.6136 1262.71 -53.7005V-53.7005Z" fill="#B1B5FF"/>
<path d="M63.7058 722.299C102.004 656.546 196.996 656.546 235.294 722.299V722.299C249.324 746.386 272.832 763.466 300.075 769.366V769.366C374.446 785.47 403.8 875.813 353.099 932.556V932.556C334.526 953.342 325.547 980.978 328.355 1008.71V1008.71C336.02 1084.42 259.17 1140.25 189.537 1109.57V1109.57C164.029 1098.33 134.971 1098.33 109.463 1109.57V1109.57C39.8301 1140.25 -37.0202 1084.42 -29.3549 1008.71V1008.71C-26.5469 980.978 -35.5264 953.342 -54.0991 932.556V932.556C-104.8 875.813 -75.4457 785.47 -1.07536 769.366V769.366C26.1679 763.466 49.6765 746.386 63.7058 722.299V722.299Z" fill="#B1B5FF"/>
</g>
<defs>
<clipPath id="clip0_110_2">
<rect width="1512" height="982" fill="white"/>
</clipPath>
</defs>
</svg>
