<svg width="1512" height="982" viewBox="0 0 1512 982" fill="none" xmlns="http://www.w3.org/2000/svg">
<g clip-path="url(#clip0_110_2)">
<rect width="1512" height="982" fill="white"/>
<circle cx="606" cy="300" r="300" fill="#32067D"/>
<circle cx="606" cy="300" r="250" fill="#390099"/>
<circle cx="606" cy="300" r="200" fill="#4406AD"/>
<circle cx="606" cy="300" r="150" fill="#560DD0"/>
<circle cx="606" cy="300" r="100" fill="#6E23EC"/>
<circle cx="606" cy="300" r="50" fill="#8740FD"/>
<circle cx="342" cy="682" r="300" fill="#32067D"/>
<circle cx="342" cy="682" r="250" fill="#390099"/>
<circle cx="342" cy="682" r="200" fill="#4406AD"/>
<circle cx="342" cy="682" r="150" fill="#560DD0"/>
<circle cx="342" cy="682" r="100" fill="#6E23EC"/>
<circle cx="342" cy="682" r="50" fill="#8740FD"/>
<circle cx="869" cy="683" r="300" fill="#32067D"/>
<circle cx="869" cy="683" r="250" fill="#390099"/>
<circle cx="869" cy="683" r="200" fill="#4406AD"/>
<circle cx="869" cy="683" r="150" fill="#560DD0"/>
<circle cx="869" cy="683" r="100" fill="#6E23EC"/>
<circle cx="869" cy="683" r="50" fill="#8740FD"/>
<circle cx="1091" cy="300" r="300" fill="#32067D"/>
<circle cx="1091" cy="300" r="250" fill="#390099"/>
<circle cx="1091" cy="300" r="200" fill="#4406AD"/>
<circle cx="1091" cy="300" r="150" fill="#560DD0"/>
<circle cx="1091" cy="300" r="100" fill="#6E23EC"/>
<circle cx="1091" cy="300" r="50" fill="#8740FD"/>
</g>
<defs>
<clipPath id="clip0_110_2">
<rect width="1512" height="982" fill="white"/>
</clipPath>
</defs>
</svg>
