<svg width="1512" height="982" viewBox="0 0 1512 982" fill="none" xmlns="http://www.w3.org/2000/svg">
<g clip-path="url(#clip0_110_2)">
<rect width="1512" height="982" fill="white"/>
<circle cx="506" cy="241" r="300" fill="#32067D"/>
<circle cx="506" cy="241" r="250" fill="#390099"/>
<circle cx="506" cy="241" r="200" fill="#4406AD"/>
<circle cx="506" cy="241" r="150" fill="#560DD0"/>
<circle cx="506" cy="241" r="100" fill="#6E23EC"/>
<circle cx="506" cy="241" r="50" fill="#8740FD"/>
<circle cx="1332" cy="791" r="300" fill="#32067D"/>
<circle cx="1332" cy="791" r="250" fill="#390099"/>
<circle cx="1332" cy="791" r="200" fill="#4406AD"/>
<circle cx="1332" cy="791" r="150" fill="#560DD0"/>
<circle cx="1332" cy="791" r="100" fill="#6E23EC"/>
<circle cx="1332" cy="791" r="50" fill="#8740FD"/>
<circle cx="856" cy="210" r="300" fill="#32067D"/>
<circle cx="856" cy="210" r="250" fill="#390099"/>
<circle cx="856" cy="210" r="200" fill="#4406AD"/>
<circle cx="856" cy="210" r="150" fill="#560DD0"/>
<circle cx="856" cy="210" r="100" fill="#6E23EC"/>
<circle cx="856" cy="210" r="50" fill="#8740FD"/>
<circle cx="532" cy="810" r="300" fill="#32067D"/>
<circle cx="532" cy="810" r="250" fill="#390099"/>
<circle cx="532" cy="810" r="200" fill="#4406AD"/>
<circle cx="532" cy="810" r="150" fill="#560DD0"/>
<circle cx="532" cy="810" r="100" fill="#6E23EC"/>
<circle cx="532" cy="810" r="50" fill="#8740FD"/>
<circle cx="156" cy="241" r="300" fill="#32067D"/>
<circle cx="156" cy="241" r="250" fill="#390099"/>
<circle cx="156" cy="241" r="200" fill="#4406AD"/>
<circle cx="156" cy="241" r="150" fill="#560DD0"/>
<circle cx="156" cy="241" r="100" fill="#6E23EC"/>
<circle cx="156" cy="241" r="50" fill="#8740FD"/>
<circle cx="956" cy="958" r="300" fill="#32067D"/>
<circle cx="956" cy="958" r="250" fill="#390099"/>
<circle cx="956" cy="958" r="200" fill="#4406AD"/>
<circle cx="956" cy="958" r="150" fill="#560DD0"/>
<circle cx="956" cy="958" r="100" fill="#6E23EC"/>
<circle cx="956" cy="958" r="50" fill="#8740FD"/>
<circle cx="225" cy="691" r="300" fill="#32067D"/>
<circle cx="225" cy="691" r="250" fill="#390099"/>
<circle cx="225" cy="691" r="200" fill="#4406AD"/>
<circle cx="225" cy="691" r="150" fill="#560DD0"/>
<circle cx="225" cy="691" r="100" fill="#6E23EC"/>
<circle cx="225" cy="691" r="50" fill="#8740FD"/>
<circle cx="106" cy="991" r="300" fill="#32067D"/>
<circle cx="106" cy="991" r="250" fill="#390099"/>
<circle cx="106" cy="991" r="200" fill="#4406AD"/>
<circle cx="106" cy="991" r="150" fill="#560DD0"/>
<circle cx="106" cy="991" r="100" fill="#6E23EC"/>
<circle cx="106" cy="991" r="50" fill="#8740FD"/>
<circle cx="882" cy="660" r="300" fill="#32067D"/>
<circle cx="882" cy="660" r="250" fill="#390099"/>
<circle cx="882" cy="660" r="200" fill="#4406AD"/>
<circle cx="882" cy="660" r="150" fill="#560DD0"/>
<circle cx="882" cy="660" r="100" fill="#6E23EC"/>
<circle cx="882" cy="660" r="50" fill="#8740FD"/>
<circle cx="1306" cy="360" r="300" fill="#32067D"/>
<circle cx="1306" cy="360" r="250" fill="#390099"/>
<circle cx="1306" cy="360" r="200" fill="#4406AD"/>
<circle cx="1306" cy="360" r="150" fill="#560DD0"/>
<circle cx="1306" cy="360" r="100" fill="#6E23EC"/>
<circle cx="1306" cy="360" r="50" fill="#8740FD"/>
<circle cx="1606" cy="60" r="300" fill="#32067D"/>
<circle cx="1606" cy="60" r="250" fill="#390099"/>
<circle cx="1606" cy="60" r="200" fill="#4406AD"/>
<circle cx="1606" cy="60" r="150" fill="#560DD0"/>
<circle cx="1606" cy="60" r="100" fill="#6E23EC"/>
<circle cx="1182" cy="260" r="300" fill="#32067D"/>
<circle cx="1182" cy="260" r="250" fill="#390099"/>
<circle cx="1182" cy="260" r="200" fill="#4406AD"/>
<circle cx="1182" cy="260" r="150" fill="#560DD0"/>
<circle cx="1182" cy="260" r="100" fill="#6E23EC"/>
<circle cx="1182" cy="260" r="50" fill="#8740FD"/>
</g>
<defs>
<clipPath id="clip0_110_2">
<rect width="1512" height="982" fill="white"/>
</clipPath>
</defs>
</svg>
