<svg width="1512" height="982" viewBox="0 0 1512 982" fill="none" xmlns="http://www.w3.org/2000/svg">
<g clip-path="url(#clip0_112_92)">
<rect width="1512" height="982" fill="white"/>
<path d="M70.4873 -148.989C108.866 -216.478 206.134 -216.478 244.513 -148.989L329.021 -0.381541C343.005 24.2094 366.742 41.7349 394.36 47.8603L562.137 85.072C636.303 101.522 665.833 191.352 615.891 248.599L499.003 382.586C480.855 403.389 472.104 430.763 474.82 458.236L492.255 634.611C499.831 711.245 421.653 767.373 351.464 735.694L198.679 666.736C172.498 654.919 142.502 654.919 116.321 666.736L-36.464 735.694C-106.653 767.373 -184.831 711.245 -177.255 634.611L-159.82 458.236C-157.104 430.763 -165.855 403.389 -184.003 382.586L-300.891 248.599C-350.833 191.352 -321.303 101.522 -247.137 85.072L-79.3597 47.8603C-51.7419 41.7349 -28.0054 24.2093 -14.0213 -0.381584L70.4873 -148.989Z" fill="#B1B5FF"/>
<path d="M1106.49 199.011C1144.87 131.522 1242.13 131.522 1280.51 199.011L1365.02 347.618C1379.01 372.209 1402.74 389.735 1430.36 395.86L1598.14 433.072C1672.3 449.522 1701.83 539.352 1651.89 596.599L1535 730.586C1516.85 751.389 1508.1 778.763 1510.82 806.236L1528.26 982.611C1535.83 1059.24 1457.65 1115.37 1387.46 1083.69L1234.68 1014.74C1208.5 1002.92 1178.5 1002.92 1152.32 1014.74L999.536 1083.69C929.347 1115.37 851.169 1059.24 858.745 982.611L876.18 806.236C878.896 778.763 870.145 751.389 851.997 730.586L735.109 596.599C685.167 539.352 714.697 449.522 788.863 433.072L956.64 395.86C984.258 389.735 1007.99 372.209 1021.98 347.618L1106.49 199.011Z" fill="#B1B5FF"/>
</g>
<defs>
<clipPath id="clip0_112_92">
<rect width="1512" height="982" fill="white"/>
</clipPath>
</defs>
</svg>
