<svg width="1512" height="982" viewBox="0 0 1512 982" fill="none" xmlns="http://www.w3.org/2000/svg">
<g clip-path="url(#clip0_113_95)">
<rect width="1512" height="982" fill="#B1B5FF"/>
<path d="M52.1797 752.909C90.7422 709.767 158.258 709.767 196.82 752.909L313.868 883.857C369.73 946.353 325.371 1045.5 241.548 1045.5H7.45257C-76.3706 1045.5 -120.73 946.353 -64.8679 883.857L52.1797 752.909Z" fill="#1A34BB"/>
<path d="M406.89 607.15C445.424 564.32 512.576 564.32 551.11 607.15L767.238 847.373C823.402 909.798 779.1 1009.25 695.128 1009.25H262.872C178.9 1009.25 134.598 909.798 190.762 847.373L406.89 607.15Z" fill="#1A34BB"/>
<path d="M876.652 409.209C915.465 357.921 992.535 357.921 1031.35 409.209L1406.14 904.466C1454.49 968.358 1408.92 1060 1328.79 1060H579.207C499.081 1060 453.507 968.358 501.858 904.466L876.652 409.209Z" fill="#1A34BB"/>
<path d="M1190.19 303.739C1228.56 245.936 1313.44 245.936 1351.81 303.739L1765.96 927.603C1808.76 992.077 1762.53 1078.25 1685.14 1078.25H856.86C779.472 1078.25 733.245 992.077 776.045 927.603L1190.19 303.739Z" fill="#1A34BB"/>
</g>
<defs>
<clipPath id="clip0_113_95">
<rect width="1512" height="982" fill="white"/>
</clipPath>
</defs>
</svg>
