<svg width="1512" height="840" viewBox="0 0 1512 840" fill="none" xmlns="http://www.w3.org/2000/svg">
<g clip-path="url(#clip0_40_2)">
<rect width="1512" height="840" fill="white"/>
<ellipse cx="310.5" cy="292.5" rx="739.5" ry="517.5" fill="#200253"/>
<ellipse cx="265.5" cy="266.5" rx="739.5" ry="517.5" fill="#390099"/>
<circle cx="1188" cy="148" r="300" fill="#32067D"/>
<circle cx="1188" cy="148" r="250" fill="#390099"/>
<circle cx="1188" cy="148" r="200" fill="#4406AD"/>
<circle cx="1188" cy="148" r="150" fill="#560DD0"/>
<circle cx="1188" cy="148" r="100" fill="#6E23EC"/>
<circle cx="1188" cy="148" r="50" fill="#8740FD"/>
<circle cx="1322" cy="648" r="300" fill="#32067D"/>
<circle cx="1322" cy="648" r="250" fill="#390099"/>
<circle cx="1322" cy="648" r="200" fill="#4406AD"/>
<circle cx="1322" cy="648" r="150" fill="#560DD0"/>
<circle cx="1322" cy="648" r="100" fill="#6E23EC"/>
<circle cx="1322" cy="648" r="50" fill="#8740FD"/>
<circle cx="838" cy="548" r="300" fill="#32067D"/>
<circle cx="838" cy="548" r="250" fill="#390099"/>
<circle cx="838" cy="548" r="200" fill="#4406AD"/>
<circle cx="838" cy="548" r="150" fill="#560DD0"/>
<circle cx="838" cy="548" r="100" fill="#6E23EC"/>
<circle cx="838" cy="548" r="50" fill="#8740FD"/>
</g>
<defs>
<clipPath id="clip0_40_2">
<rect width="1512" height="840" fill="white"/>
</clipPath>
</defs>
</svg>
